<?xml version="1.0" encoding="UTF-8"?>
<svg xmlns="http://www.w3.org/2000/svg" version="1.1" xmlns:xlink="http://www.w3.org/1999/xlink" viewBox="0 0 595.28 283.46">
  <defs>
    <style>
      .cls-1 {
        fill: #fff;
      }

      .cls-2 {
        fill: none;
      }

      .cls-3 {
        fill: #e01f26;
      }

      .cls-4 {
        clip-path: url(#clippath-1);
      }

      .cls-5 {
        fill: #bc2026;
      }

      .cls-6 {
        clip-path: url(#clippath-2);
      }

      .cls-7 {
        clip-path: url(#clippath);
      }
    </style>
    <clipPath id="clippath">
      <rect class="cls-2" width="595.28" height="283.46"/>
    </clipPath>
    <clipPath id="clippath-1">
      <rect class="cls-2" width="595.28" height="283.46"/>
    </clipPath>
    <clipPath id="clippath-2">
      <rect class="cls-2" x="24.81" y="93.88" width="90.53" height="107.57"/>
    </clipPath>
  </defs>
  <!-- Generator: Adobe Illustrator 28.7.1, SVG Export Plug-In . SVG Version: 1.2.0 Build 142)  -->
  <g>
    <g id="Layer_1">
      <g class="cls-7">
        <g class="cls-4">
          <path class="cls-1" d="M265.32,201.57c-6.57,0-12.66-1.64-18.9-4.93h-.33c-.33,1.48-.82,3.62-.82,3.62h-15.78v-118.53h19.56v41.76h.17c5.42-2.47,9.37-3.62,16.11-3.62,23.35,0,29.92,14.3,29.92,40.11,0,21.04-4.44,41.59-29.92,41.59M264.49,136.8c-6.74,0-12,1.65-15.45,4.6,0,21.7,0,18.9-.16,38.3,3.45,2.47,8.71,4.94,15.78,4.94,11.84,0,11.34-17.43,11.34-24.66,0-19.89-3.62-23.18-11.51-23.18"/>
          <path class="cls-1" d="M351.12,200.25l-1.15-4.11-.33.16c-7.4,4.28-13.64,5.43-21.21,5.43-12.66,0-22.36-8.38-22.36-22.69,0-9.04,2.3-15.12,6.42-19.23,7.88-7.4,21.53-8.06,34.85-8.38v-8.22c0-4.11-2.3-6.74-10.52-6.74-6.58,0-13.15,1.48-23.34,4.44l-1.15-17.75c10.68-2.46,16.11-3.29,25.81-3.29,14.96,0,28.43,4.77,28.43,20.88v59.51h-15.45ZM328.28,169.18c-1.65,1.48-2.47,3.94-2.47,7.23,0,5.59,2.13,8.71,7.89,8.71s7.07-.33,13.48-4.11l.16-15.78c-6.74.16-15.78.82-19.07,3.94"/>
          <polygon class="cls-1" points="429.21 200.09 411.12 167.37 410.96 167.21 404.55 174.77 404.55 200.09 384.99 200.09 384.82 81.73 404.55 81.73 404.55 145.84 404.71 146 408 141.4 423.62 121.51 448.11 121.51 423.29 151.92 451.24 200.09 429.21 200.09"/>
          <path class="cls-1" d="M507.79,200.25l-.99-3.95-.33.17c-7.07,3.62-13.48,5.09-21.54,5.09-10.68,0-24.66-4.76-24.66-20.55v-59.51h19.4v57.54c0,3.95,3.29,6.08,6.58,6.08,8.55,0,13.81-2.47,17.92-5.1v-58.52h19.4v78.74h-15.78Z"/>
          <path class="cls-1" d="M564.5,201.57c-4.77,0-14.63-.32-23.02-1.64l1.15-17.1c8.55,1.32,16.6,2.3,21.87,2.3,3.94,0,10.52-.33,10.52-4.44.16-3.95-1.81-5.26-4.77-7.07l-17.42-10.85c-5.92-3.78-14.3-9.04-14.3-22.36,0-15.62,15.62-20.55,28.93-20.55,4.77,0,12.99,0,21.54,1.48l-1.32,17.26c-8.55-1.31-14.8-2.14-20.05-2.14-2.8,0-5.76-.17-7.73.82-1.15.49-1.97,1.97-1.97,3.45,0,2.63.66,4.27,3.94,6.41l15.45,9.7c8.55,5.26,16.77,10.68,16.77,24,0,15.45-15.45,20.71-29.59,20.71"/>
          <path class="cls-1" d="M195.12,200.09l-5.75-22.03h-35.34l-5.76,22.03h-21.21l32.06-114.42h24.99l32.06,114.42h-21.04ZM174.41,119.21l-2.63-13.15h-.33l-2.63,13.15-10.03,40.93,25.65-.16-10.03-40.77Z"/>
          <path class="cls-3" d="M114.85,144.25c0,31.53-25.56,57.1-57.1,57.1S.65,175.78.65,144.25s25.57-57.1,57.1-57.1,57.1,25.56,57.1,57.1"/>
        </g>
        <g class="cls-6">
          <path class="cls-5" d="M84.93,93.87c14.33,10.38,23.65,27.22,23.65,46.27,0,31.54-25.57,57.1-57.1,57.1-9.64,0-18.72-2.4-26.68-6.62,9.4,6.8,20.94,10.82,33.43,10.82,31.54,0,57.1-25.57,57.1-57.1,0-21.89-12.32-40.89-30.4-50.47"/>
        </g>
      </g>
    </g>
  </g>
</svg>